<svg id="Layer_1" data-name="Layer 1" xmlns="http://www.w3.org/2000/svg" viewBox="0 0 375.04 194.4"><defs><style>.cls-1,.cls-2{fill:#ffd54f;}.cls-1,.cls-3{stroke:#231f20;stroke-miterlimit:10;}.cls-3{fill:#231f20;}.cls-4{fill:#a2a1a1;}</style></defs><path class="cls-1" d="M348,206.34" transform="translate(-30.61 -44.64)"/><path class="cls-2" d="M405.65,161.91c0,22.64-51,16.23-79.59,23.62-44.09,11.41-89.63,38.41-125.9,48.56-76.73,21.44-182.26-30.3-168.3-85.27C44.4,99.45,97.77,44.57,168.37,44.72c10.36,0,24.86-.94,35.27,3.19,32.17,12.77,52.8,44.05,75.57,63.71,20.23,17.46,58.76,24.48,85.59,28.85C388.41,144.31,405.65,144.13,405.65,161.91Z" transform="translate(-30.61 -44.64)"/><circle class="cls-3" cx="177.91" cy="48.91" r="19.72"/><ellipse class="cls-4" cx="132.79" cy="133.57" rx="116.04" ry="44.81"/></svg>